<svg width="87" height="87" viewBox="0 0 87 87" fill="none" xmlns="http://www.w3.org/2000/svg">
<circle cx="43.5" cy="43.5" r="42.5" stroke="#7D806A" stroke-width="2" stroke-linejoin="round"/>
<path fill-rule="evenodd" clip-rule="evenodd" d="M29.5235 61.9832C29.3193 63.1473 30.4679 64.0585 31.4823 63.5371L43.004 57.6153L54.5257 63.5371C55.5401 64.0585 56.6888 63.1473 56.4845 61.9832L54.3065 49.5683L63.5526 40.7571C64.4167 39.9337 63.9694 38.4281 62.8118 38.2636L49.9533 36.437L44.22 25.0798C43.7036 24.0567 42.3045 24.0567 41.788 25.0798L36.0547 36.437L23.1962 38.2636C22.0386 38.4281 21.5913 39.9337 22.4554 40.7571L31.7016 49.5683L29.5235 61.9832ZM42.3981 54.7169L32.723 59.6896L34.5454 49.3017C34.6313 48.812 34.4698 48.3106 34.1182 47.9756L26.4878 40.7041L37.1251 39.1929C37.5648 39.1305 37.9488 38.8496 38.1562 38.4387L43.004 28.8356L47.8519 38.4387C48.0593 38.8496 48.4433 39.1305 48.883 39.1929L59.5203 40.7041L51.8898 47.9756C51.5383 48.3106 51.3767 48.812 51.4626 49.3017L53.2851 59.6896L43.61 54.7169C43.2278 54.5204 42.7803 54.5204 42.3981 54.7169Z" fill="#7D806A" stroke="#7D806A"/>
</svg>
