<svg width="87" height="87" viewBox="0 0 87 87" fill="none" xmlns="http://www.w3.org/2000/svg">
<circle cx="43.5" cy="43.5" r="42.5" stroke="#7D806A" stroke-width="2" stroke-linejoin="round"/>
<path fill-rule="evenodd" clip-rule="evenodd" d="M43.9758 26.5369C43.6704 26.4201 43.3296 26.4201 43.0242 26.5369L27.7311 32.3838L43.5 38.4127L59.2689 32.3838L43.9758 26.5369ZM61.4375 34.1927L44.7812 40.5608V59.9665L61.4375 53.5984V34.1927ZM42.2188 59.9665V40.5608L25.5625 34.1927V53.5984L42.2188 59.9665ZM42.0725 24.2628C42.9889 23.9124 44.0111 23.9124 44.9275 24.2628L63.1946 31.2468C63.681 31.4328 64 31.8831 64 32.3838V53.5984C64 54.5999 63.3621 55.5005 62.3892 55.8725L43.9758 62.9124C43.6704 63.0292 43.3296 63.0292 43.0242 62.9124L24.6108 55.8725C23.6379 55.5005 23 54.5999 23 53.5984V32.3838C23 31.8831 23.319 31.4328 23.8054 31.2468L42.0725 24.2628Z" fill="#7D806A" stroke="#7D806A"/>
</svg>
