<svg width="87" height="87" viewBox="0 0 87 87" fill="none" xmlns="http://www.w3.org/2000/svg">
<circle cx="43.5" cy="43.5" r="42.5" stroke="#7D806A" stroke-width="2" stroke-linejoin="round"/>
<path d="M42.933 60.987C39.4849 63.9509 35.1073 65.6109 30.5774 65.6723C30.4179 65.6677 30.2629 65.6211 30.1281 65.5374C29.9932 65.4536 29.8832 65.3357 29.8092 65.1954C26.5729 59.0952 28.6898 48.4728 35.045 38.753C41.4002 29.0332 50.3098 22.7951 57.2266 23.2399C57.3873 23.2528 57.5421 23.3043 57.6778 23.3899C57.8136 23.4756 57.9262 23.5928 58.0062 23.7318C61.216 29.8285 59.1142 40.4394 52.759 50.1592C50.1164 54.2911 46.7938 57.9524 42.933 60.987ZM31.2538 63.8365C37.3762 63.895 45.4663 57.9268 51.1886 49.1605C56.9108 40.3942 59.0824 30.6266 56.5729 25.1056C50.4506 25.047 42.3605 31.0153 36.6382 39.7816C30.9159 48.5479 28.7443 58.3155 31.2538 63.8365Z" fill="#7D806A"/>
<path d="M42.9707 60.9112C39.6956 63.6868 35.6338 65.3659 31.3673 65.7081C31.2125 65.7066 31.0607 65.6671 30.9255 65.5932C30.7902 65.5192 30.6756 65.413 30.5917 65.284C30.5026 65.1617 30.4459 65.0186 30.4271 64.868C30.4083 64.7174 30.4279 64.5641 30.4841 64.4223C39.1485 42.0466 56.3207 23.7407 56.5431 23.5006C56.6482 23.3957 56.7755 23.3156 56.9155 23.2663C57.0554 23.217 57.2044 23.1998 57.3513 23.2158C57.5024 23.2345 57.6467 23.2881 57.7728 23.3722C57.8989 23.4564 58.0034 23.5689 58.0779 23.7008C61.2878 29.7975 59.1859 40.4085 52.8307 50.1282C50.1785 54.2504 46.8438 57.8973 42.9707 60.9112ZM32.7955 63.7012C38.7232 62.8464 45.9296 57.2203 51.1886 49.1605C56.7113 40.7584 58.8614 31.5262 56.9148 25.9306C53.2424 29.9994 40.2589 45.3533 32.7955 63.7012Z" fill="#7D806A"/>
<path d="M52.8931 49.2079C52.7319 49.3361 52.5317 49.4051 52.3266 49.4032C47.6931 49.8076 43.1055 50.6602 38.6287 51.9489C38.3839 52.0103 38.1257 51.974 37.9093 51.8477C37.6929 51.7214 37.5355 51.5152 37.4709 51.2731C37.4378 51.1542 37.4291 51.0297 37.4453 50.9069C37.4615 50.7841 37.5022 50.6655 37.5651 50.5582C37.628 50.451 37.7117 50.3572 37.8113 50.2825C37.9109 50.2077 38.0244 50.1536 38.1449 50.1232C42.7777 48.7915 47.5268 47.9191 52.3227 47.5189C52.5209 47.5166 52.7143 47.5765 52.8755 47.6902C53.0366 47.8038 53.1572 47.9655 53.2203 48.1524C53.2834 48.3392 53.2857 48.5417 53.227 48.7312C53.1683 48.9206 53.0514 49.0874 52.8931 49.2079Z" fill="#7D806A"/>
<path d="M57.3654 37.2647C57.1731 37.4028 56.94 37.4721 56.7045 37.461C53.0927 37.4614 49.5163 38.2436 46.2221 39.7535C46.0039 39.882 45.7442 39.9194 45.5003 39.8573C45.2564 39.7952 45.0481 39.6387 44.9214 39.4223C44.7946 39.206 44.7598 38.9474 44.8245 38.7035C44.8892 38.4596 45.0481 38.2504 45.2663 38.1219C48.9099 36.4194 52.8816 35.549 56.8895 35.5746C57.0131 35.5902 57.1321 35.63 57.2396 35.6919C57.3472 35.7538 57.4413 35.8364 57.5163 35.935C57.5913 36.0336 57.6459 36.1462 57.6769 36.2664C57.7078 36.3866 57.7146 36.5119 57.6967 36.6351C57.6684 36.8781 57.5503 37.1026 57.3654 37.2647Z" fill="#7D806A"/>
<path d="M51.1886 49.1605C45.4663 57.9268 37.3762 63.895 31.2538 63.8365C28.7443 58.3155 30.9159 48.5479 36.6382 39.7816C42.3605 31.0153 50.4506 25.047 56.5729 25.1056C59.0824 30.6266 56.9108 40.3942 51.1886 49.1605ZM51.1886 49.1605C45.9296 57.2203 38.7232 62.8464 32.7955 63.7012C40.2589 45.3533 53.2424 29.9994 56.9148 25.9306C58.8614 31.5262 56.7113 40.7584 51.1886 49.1605ZM42.933 60.987C39.4849 63.9509 35.1073 65.6109 30.5774 65.6723C30.4179 65.6677 30.2629 65.6211 30.1281 65.5374C29.9932 65.4536 29.8832 65.3357 29.8092 65.1954C26.5729 59.0952 28.6898 48.4728 35.045 38.753C41.4002 29.0332 50.3098 22.7951 57.2266 23.2399C57.3873 23.2528 57.5421 23.3043 57.6778 23.3899C57.8136 23.4756 57.9262 23.5928 58.0062 23.7318C61.216 29.8285 59.1142 40.4394 52.759 50.1592C50.1164 54.2911 46.7938 57.9524 42.933 60.987ZM42.9707 60.9112C39.6956 63.6868 35.6338 65.3659 31.3673 65.7081C31.2125 65.7066 31.0607 65.6671 30.9255 65.5932C30.7902 65.5192 30.6756 65.413 30.5917 65.284C30.5026 65.1617 30.4459 65.0186 30.4271 64.868C30.4083 64.7174 30.4279 64.5641 30.4841 64.4223C39.1485 42.0466 56.3207 23.7407 56.5431 23.5006C56.6482 23.3957 56.7755 23.3156 56.9155 23.2663C57.0554 23.217 57.2044 23.1998 57.3513 23.2158C57.5024 23.2345 57.6467 23.2881 57.7728 23.3722C57.8989 23.4564 58.0034 23.5689 58.0779 23.7008C61.2878 29.7975 59.1859 40.4085 52.8307 50.1282C50.1785 54.2504 46.8438 57.8973 42.9707 60.9112ZM52.8931 49.2079C52.7319 49.3361 52.5317 49.4051 52.3266 49.4032C47.6931 49.8076 43.1055 50.6602 38.6287 51.9489C38.3839 52.0103 38.1257 51.974 37.9093 51.8477C37.6929 51.7214 37.5355 51.5152 37.4709 51.2731C37.4378 51.1542 37.4291 51.0297 37.4453 50.9069C37.4615 50.7841 37.5022 50.6655 37.5651 50.5582C37.628 50.451 37.7117 50.3572 37.8113 50.2825C37.9109 50.2077 38.0244 50.1536 38.1449 50.1232C42.7777 48.7915 47.5268 47.9191 52.3227 47.5189C52.5209 47.5166 52.7143 47.5765 52.8754 47.6902C53.0366 47.8038 53.1572 47.9655 53.2203 48.1524C53.2834 48.3392 53.2857 48.5417 53.227 48.7312C53.1683 48.9206 53.0514 49.0874 52.8931 49.2079ZM57.3654 37.2647C57.1731 37.4028 56.94 37.4721 56.7045 37.461C53.0927 37.4614 49.5163 38.2436 46.2221 39.7535C46.0039 39.882 45.7442 39.9194 45.5003 39.8573C45.2564 39.7952 45.0481 39.6387 44.9214 39.4223C44.7946 39.206 44.7598 38.9474 44.8245 38.7035C44.8892 38.4596 45.0481 38.2504 45.2663 38.1219C48.9099 36.4194 52.8816 35.549 56.8895 35.5746C57.0131 35.5902 57.1321 35.63 57.2396 35.6919C57.3472 35.7538 57.4412 35.8364 57.5163 35.935C57.5913 36.0336 57.6459 36.1462 57.6769 36.2664C57.7078 36.3866 57.7146 36.5119 57.6967 36.6351C57.6684 36.8781 57.5503 37.1026 57.3654 37.2647Z" stroke="#7D806A"/>
</svg>
