<svg width="87" height="87" viewBox="0 0 87 87" fill="none" xmlns="http://www.w3.org/2000/svg">
<circle cx="43.5" cy="43.5" r="42.5" stroke="#7D806A" stroke-width="2" stroke-linejoin="round"/>
<path fill-rule="evenodd" clip-rule="evenodd" d="M32.5625 31.4688C32.5625 28.4484 35.0109 26 38.0312 26C41.0516 26 43.5 28.4484 43.5 31.4688C43.5 28.4484 45.9484 26 48.9688 26C51.9891 26 54.4375 28.4484 54.4375 31.4688L54.4375 31.4809C54.4376 31.6338 54.4378 32.0718 54.3548 32.5625H58.8125C60.0206 32.5625 61 33.5419 61 34.75V39.125C61 40.3331 60.0206 41.3125 58.8125 41.3125V57.7188C58.8125 59.5309 57.3434 61 55.5312 61H31.4688C29.6566 61 28.1875 59.5309 28.1875 57.7188L28.1875 41.3125C26.9794 41.3125 26 40.3331 26 39.125V34.75C26 33.5419 26.9794 32.5625 28.1875 32.5625H32.6452C32.5622 32.0718 32.5624 31.6337 32.5625 31.4809C32.5625 31.4766 32.5625 31.4726 32.5625 31.4688ZM34.8987 32.5625H41.3125V31.4688C41.3125 29.6566 39.8434 28.1875 38.0312 28.1875C36.2191 28.1875 34.75 29.6566 34.75 31.4688C34.75 31.6541 34.7543 32.067 34.8482 32.4114C34.8649 32.4727 34.8822 32.5228 34.8987 32.5625ZM45.6875 32.5625H52.1013C52.1178 32.5228 52.1351 32.4727 52.1518 32.4114C52.2457 32.067 52.25 31.6541 52.25 31.4688C52.25 29.6566 50.7809 28.1875 48.9688 28.1875C47.1566 28.1875 45.6875 29.6566 45.6875 31.4688V32.5625ZM28.1875 34.75V39.125H41.3125V34.75H28.1875ZM45.6875 34.75V39.125H58.8125V34.75H45.6875ZM56.625 41.3125H45.6875V58.8125H55.5312C56.1353 58.8125 56.625 58.3228 56.625 57.7188V41.3125ZM41.3125 58.8125V41.3125H30.375V57.7188C30.375 58.3228 30.8647 58.8125 31.4688 58.8125H41.3125Z" fill="#7D806A" stroke="#7D806A"/>
</svg>
