<svg width="87" height="87" viewBox="0 0 87 87" fill="none" xmlns="http://www.w3.org/2000/svg">
<circle cx="43.5" cy="43.5" r="42.5" stroke="#7D806A" stroke-width="2" stroke-linejoin="round"/>
<path fill-rule="evenodd" clip-rule="evenodd" d="M43.5 27.4375C40.2455 27.4375 37.6071 30.1658 37.6071 33.5312V34.75H49.3929V33.5312C49.3929 30.1658 46.7545 27.4375 43.5 27.4375ZM51.75 34.75V33.5312C51.75 28.8196 48.0564 25 43.5 25C38.9437 25 35.25 28.8196 35.25 33.5312V34.75H27V59.125C27 61.8174 29.1107 64 31.7143 64H55.2857C57.8893 64 60 61.8174 60 59.125V34.75H51.75ZM29.3571 37.1875V59.125C29.3571 60.4712 30.4125 61.5625 31.7143 61.5625H55.2857C56.5875 61.5625 57.6429 60.4712 57.6429 59.125V37.1875H29.3571Z" fill="#7D806A" stroke="#7D806A"/>
</svg>
