<svg width="87" height="87" viewBox="0 0 87 87" fill="none" xmlns="http://www.w3.org/2000/svg">
<circle cx="43.5" cy="43.5" r="42.5" stroke="#7D806A" stroke-width="2" stroke-linejoin="round"/>
<path d="M25.5723 31.1681L51.7652 34.7516C51.8796 34.7658 51.9847 34.822 52.06 34.9094C52.1353 34.9968 52.1756 35.1091 52.173 35.2246V61.5056C52.173 61.631 52.1232 61.7513 52.0347 61.84C51.9462 61.9287 51.8261 61.9786 51.7009 61.9786H51.6008L25.4078 58.3951C25.2934 58.3809 25.1884 58.3247 25.1131 58.2373C25.0377 58.1499 24.9975 58.0376 25.0001 57.9221V31.6268C25.0001 31.5014 25.0499 31.381 25.1384 31.2923C25.2269 31.2036 25.347 31.1538 25.4722 31.1538H25.5723V31.1681ZM51.236 35.6331L25.9371 32.1643V57.4993L51.236 60.9752V35.6331Z" fill="#7D806A"/>
<path d="M62.0364 29.5053L52.1729 35.5255V60.6813L62.0364 54.6969V29.5053ZM51.7008 35.2388L51.4577 34.8375L62.1866 28.3085C62.2698 28.2479 62.3699 28.2153 62.4727 28.2153C62.5343 28.2153 62.5954 28.2276 62.6523 28.2514C62.7092 28.2753 62.7607 28.3102 62.804 28.3543C62.8473 28.3983 62.8814 28.4505 62.9043 28.5078C62.9273 28.5652 62.9386 28.6265 62.9376 28.6883V54.9693C62.9389 55.0507 62.9192 55.1312 62.8803 55.2027C62.8415 55.2743 62.7848 55.3346 62.7159 55.3778L62.4727 54.9764L62.7087 55.3778L51.9798 61.9068C51.8966 61.9674 51.7965 62 51.6937 62C51.5698 61.9981 51.4515 61.9474 51.3645 61.8589C51.2775 61.7704 51.2288 61.6512 51.2288 61.527V35.2317C51.2268 35.1501 51.2462 35.0694 51.2851 34.9977C51.324 34.926 51.3811 34.8658 51.4505 34.8232L51.7008 35.2388Z" fill="#7D806A"/>
<path d="M27.1603 31.383L51.6008 34.7371L61.1352 28.9534L39.427 25.9218L27.1603 31.383ZM51.6366 35.6831L25.4436 32.0997C25.3466 32.0848 25.2568 32.0395 25.187 31.9704C25.1172 31.9012 25.0711 31.8116 25.0552 31.7146C25.0393 31.6175 25.0545 31.5179 25.0986 31.43C25.1427 31.3421 25.2134 31.2705 25.3006 31.2253L39.1481 25.0618C39.2367 25.0104 39.3399 24.9902 39.4413 25.0045L62.5586 28.2296C62.6342 28.2361 62.7072 28.2602 62.7717 28.3001C62.8363 28.3399 62.8907 28.3943 62.9306 28.4589C62.963 28.5115 62.9847 28.57 62.9943 28.631C63.0039 28.6921 63.0013 28.7544 62.9867 28.8144C62.972 28.8745 62.9456 28.931 62.909 28.9807C62.8723 29.0304 62.8262 29.0723 62.7732 29.1039L62.53 28.7026L62.7661 29.1039L52.0371 35.633C51.9874 35.67 51.9307 35.6967 51.8705 35.7114C51.8103 35.7262 51.7478 35.7288 51.6866 35.719L51.6366 35.6831Z" fill="#7D806A"/>
<path d="M31.1515 31.942L39.191 33.0457C39.2516 33.0537 39.3101 33.0735 39.363 33.1041C39.416 33.1347 39.4624 33.1755 39.4996 33.2241C39.5368 33.2727 39.5641 33.3282 39.5799 33.3873C39.5957 33.4465 39.5996 33.5082 39.5916 33.5689L39.0766 45.9963H38.6117H39.0838C39.0764 46.1211 39.0206 46.2382 38.9285 46.3225C38.8363 46.4068 38.715 46.4518 38.5902 46.4478C38.486 46.4427 38.386 46.4051 38.3041 46.3403L34.4345 43.4735L30.615 45.8816C30.54 45.9311 30.4523 45.9577 30.3624 45.9583C30.2726 45.9589 30.1845 45.9334 30.1089 45.8848C30.0332 45.8363 29.9732 45.7669 29.9361 45.6849C29.899 45.6029 29.8864 45.5119 29.8998 45.4229L30.615 32.372C30.6224 32.2478 30.6784 32.1315 30.7707 32.0483C30.8631 31.9652 30.9845 31.9218 31.1086 31.9277L31.1515 31.942ZM38.6403 33.9201L31.4877 32.9382L30.8797 44.6059L34.1699 42.5347C34.2524 42.4757 34.3511 42.444 34.4524 42.444C34.5537 42.444 34.6525 42.4757 34.7349 42.5347L38.1825 45.0789L38.6403 33.9201Z" fill="#7D806A"/>
<path d="M32.5104 32.2789L39.0336 33.096L49.4693 27.3625L42.803 26.4523L32.5104 32.3148V32.2789ZM39.0694 34.0492L31.0227 33.0386C30.9483 33.0314 30.8769 33.0061 30.8145 32.9649C30.7522 32.9237 30.7009 32.8678 30.665 32.8021C30.6343 32.749 30.6144 32.6903 30.6065 32.6294C30.5985 32.5686 30.6026 32.5067 30.6185 32.4474C30.6345 32.3882 30.662 32.3326 30.6994 32.284C30.7368 32.2354 30.7835 32.1947 30.8367 32.1643L42.4669 25.5421C42.5631 25.476 42.6803 25.4479 42.7959 25.4632L50.9785 26.5813C51.0586 26.5845 51.1363 26.6087 51.2041 26.6514C51.2719 26.6942 51.3273 26.754 51.3648 26.8249C51.3949 26.8789 51.414 26.9384 51.4209 26.9999C51.4279 27.0613 51.4225 27.1236 51.4052 27.1829C51.3879 27.2423 51.359 27.2976 51.3201 27.3457C51.2812 27.3937 51.2332 27.4335 51.1788 27.4628L39.3984 33.9775C39.3056 34.032 39.1977 34.0546 39.0909 34.042L39.0694 34.0492Z" fill="#7D806A"/>
<path d="M51.7652 34.7516L25.5723 31.1681V31.1538H25.4722C25.347 31.1538 25.2269 31.2036 25.1384 31.2923C25.0499 31.381 25.0001 31.5014 25.0001 31.6268V57.9221C24.9975 58.0376 25.0377 58.1499 25.1131 58.2373C25.1884 58.3247 25.2934 58.3809 25.4078 58.3951M51.7652 34.7516L51.7009 35.2174M51.7652 34.7516C51.8796 34.7658 51.9847 34.822 52.06 34.9094C52.1353 34.9968 52.1756 35.1091 52.173 35.2246V61.5056C52.173 61.631 52.1232 61.7513 52.0347 61.84C51.9462 61.9287 51.8261 61.9786 51.7009 61.9786H51.6008L25.4078 58.3951M25.4078 58.3951L25.4722 57.9293M25.3006 31.2253C25.2134 31.2705 25.1427 31.3421 25.0986 31.43C25.0545 31.5179 25.0393 31.6175 25.0552 31.7146C25.0711 31.8116 25.1172 31.9012 25.187 31.9704C25.2568 32.0395 25.3466 32.0848 25.4436 32.0997L51.6366 35.6831L51.6866 35.719C51.7478 35.7288 51.8103 35.7262 51.8705 35.7114C51.9307 35.6967 51.9874 35.67 52.0371 35.633L62.7661 29.1039L62.53 28.7026L62.7732 29.1039C62.8262 29.0723 62.8723 29.0304 62.909 28.9807C62.9456 28.931 62.9721 28.8745 62.9867 28.8144C63.0013 28.7544 63.0039 28.6921 62.9943 28.631C62.9847 28.57 62.963 28.5115 62.9306 28.4589C62.8907 28.3943 62.8363 28.3399 62.7717 28.3001C62.7072 28.2602 62.6342 28.2361 62.5586 28.2296L39.4413 25.0045C39.3399 24.9902 39.2367 25.0104 39.1481 25.0618L25.3006 31.2253ZM25.3006 31.2253L25.4937 31.6553M39.191 33.0457L31.1515 31.942L31.1086 31.9277C30.9845 31.9218 30.8631 31.9652 30.7707 32.0483C30.6784 32.1315 30.6224 32.2478 30.615 32.372M39.191 33.0457L39.1267 33.5116M39.191 33.0457C39.2516 33.0537 39.3101 33.0735 39.363 33.1041C39.416 33.1347 39.4624 33.1755 39.4996 33.2241C39.5368 33.2727 39.5641 33.3282 39.5799 33.3873C39.5957 33.4465 39.5996 33.5082 39.5916 33.5689L39.0766 45.9963H38.6117H39.0838C39.0764 46.1211 39.0206 46.2382 38.9285 46.3225C38.8363 46.4068 38.715 46.4518 38.5902 46.4478C38.486 46.4427 38.386 46.4051 38.3041 46.3403L34.4345 43.4735L30.615 45.8816M30.615 45.8816L30.3647 45.4803M30.615 45.8816C30.54 45.9311 30.4523 45.9577 30.3624 45.9583C30.2726 45.9589 30.1845 45.9334 30.1089 45.8848C30.0332 45.8363 29.9732 45.7669 29.9361 45.6849C29.899 45.6029 29.8864 45.5119 29.8998 45.4229L30.615 32.372M30.615 32.372H31.0871M30.8367 32.1643C30.7835 32.1947 30.7368 32.2354 30.6994 32.284C30.662 32.3326 30.6345 32.3882 30.6185 32.4474C30.6026 32.5067 30.5985 32.5686 30.6065 32.6294C30.6144 32.6903 30.6343 32.749 30.665 32.8021C30.7009 32.8678 30.7522 32.9237 30.8145 32.9649C30.8769 33.0061 30.9483 33.0314 31.0227 33.0386L39.0694 34.0492L39.0909 34.042C39.1977 34.0546 39.3056 34.032 39.3984 33.9775L51.1788 27.4628M30.8367 32.1643L31.0727 32.5728M30.8367 32.1643L42.4669 25.5421C42.5631 25.476 42.6803 25.4479 42.7959 25.4632L50.9785 26.5813C51.0586 26.5845 51.1363 26.6087 51.2041 26.6514C51.2719 26.6942 51.3273 26.754 51.3648 26.8249C51.3949 26.8789 51.414 26.9384 51.4209 26.9999C51.4279 27.0613 51.4225 27.1236 51.4052 27.1829C51.3879 27.2423 51.359 27.2976 51.3201 27.3457C51.2812 27.3937 51.2332 27.4335 51.1788 27.4628M51.1788 27.4628L50.957 27.0471M51.236 35.6331L25.9371 32.1643V57.4993L51.236 60.9752V35.6331ZM62.0364 29.5053L52.1729 35.5255V60.6813L62.0364 54.6969V29.5053ZM51.7008 35.2388L51.4577 34.8375L62.1866 28.3085C62.2698 28.2479 62.3699 28.2153 62.4727 28.2153C62.5343 28.2153 62.5954 28.2276 62.6523 28.2514C62.7092 28.2753 62.7607 28.3102 62.804 28.3543C62.8473 28.3983 62.8814 28.4505 62.9043 28.5078C62.9273 28.5652 62.9386 28.6265 62.9376 28.6883V54.9693C62.9389 55.0507 62.9192 55.1312 62.8803 55.2027C62.8415 55.2743 62.7848 55.3346 62.7159 55.3778L62.4727 54.9764L62.7087 55.3778L51.9798 61.9068C51.8966 61.9674 51.7965 62 51.6937 62C51.5698 61.9981 51.4515 61.9474 51.3645 61.8589C51.2775 61.7704 51.2288 61.6512 51.2288 61.527V35.2317C51.2268 35.1501 51.2462 35.0694 51.2851 34.9977C51.324 34.926 51.3811 34.8658 51.4505 34.8232L51.7008 35.2388ZM27.1603 31.383L51.6008 34.7371L61.1352 28.9534L39.427 25.9218L27.1603 31.383ZM38.6403 33.9201L31.4877 32.9382L30.8797 44.6059L34.1699 42.5347C34.2524 42.4757 34.3511 42.444 34.4524 42.444C34.5537 42.444 34.6525 42.4757 34.7349 42.5347L38.1825 45.0789L38.6403 33.9201ZM32.5104 32.2789L39.0336 33.096L49.4693 27.3625L42.803 26.4523L32.5104 32.3148V32.2789Z" stroke="#7D806A" stroke-width="1.5"/>
</svg>
